<svg width="24" height="24" viewBox="0 0 24 24" fill="none" xmlns="http://www.w3.org/2000/svg">
<path d="M5.5 8H6V7.98335L5.99893 7.96731L5.99892 7.9672L5.99892 7.96711L5.99889 7.96674L5.99879 7.96499L5.99811 7.95271C5.99752 7.9411 5.99666 7.92271 5.99578 7.89801C5.99402 7.84857 5.99219 7.77394 5.99219 7.67773C5.99219 7.48513 5.99953 7.20711 6.02929 6.8724C6.08905 6.20007 6.23793 5.31396 6.58924 4.4357C6.93996 3.55889 7.48565 2.70607 8.33125 2.07187C9.1719 1.44139 10.3446 1 12 1C13.6551 1 14.864 1.44139 15.7563 2.07874C16.6534 2.71958 17.2608 3.58041 17.6719 4.46144C18.0836 5.34361 18.2919 6.2323 18.3966 6.90498C18.4487 7.24008 18.4746 7.51833 18.4874 7.71099C18.4939 7.80724 18.497 7.88189 18.4985 7.93132C18.4993 7.95603 18.4997 7.97441 18.4998 7.98601L18.5 7.99827L18.5 8.00005V8.00018V8.00037V8.00041V8.00047V8.00057V8.00073V8.00114V8.00164V8.00222V8.0029V8.00367V8.00453V8.00547V8.0065V8.00762V8.00883V8.01012V8.01151V8.01297V8.01453V8.01617V8.01789V8.0197V8.0216V8.02358V8.02565V8.0278V8.03003V8.03234V8.03474V8.03723V8.03979V8.04244V8.04517V8.04798V8.05087V8.05384V8.05689V8.06003V8.06324V8.06653V8.0699V8.07336V8.07689V8.08049V8.08418V8.08794V8.09179V8.09571V8.0997V8.10377V8.10792V8.11215V8.11645V8.12082V8.12527V8.1298V8.1344V8.13907V8.14382V8.14864V8.15353V8.1585V8.16353V8.16865V8.17383V8.17908V8.18441V8.1898V8.19527V8.20081V8.20642V8.21209V8.21784V8.22365V8.22954V8.23549V8.24151V8.2476V8.25375V8.25998V8.26627V8.27262V8.27904V8.28553V8.29209V8.29871V8.30539V8.31214V8.31895V8.32583V8.33277V8.33977V8.34684V8.35397V8.36116V8.36842V8.37573V8.38311V8.39055V8.39805V8.40561V8.41323V8.42091V8.42865V8.43645V8.44431V8.45223V8.4602V8.46824V8.47633V8.48448V8.49268V8.50095V8.50927V8.51764V8.52607V8.53456V8.5431V8.5517V8.56035V8.56906V8.57782V8.58663V8.5955V8.60442V8.61339V8.62242V8.6315V8.64062V8.64981V8.65904V8.66832V8.67765V8.68704V8.69647V8.70596V8.71549V8.72507V8.7347V8.74438V8.75411V8.76388V8.7737V8.78357V8.79349V8.80345V8.81346V8.82351V8.83361V8.84376V8.85395V8.86418V8.87446V8.88479V8.89515V8.90556V8.91602V8.92651V8.93705V8.94763V8.95825V8.96892V8.97962V8.99037V9.00115V9.01198V9.02285V9.03375V9.0447V9.05568V9.0667V9.07777V9.08887V9.1V9.11118V9.12239V9.13364V9.14492V9.15624V9.1676V9.17899V9.19042V9.20188V9.21338V9.22491V9.23648V9.24808V9.25971V9.27137V9.28307V9.2948V9.30657V9.31836V9.33018V9.34204V9.35393V9.36585V9.3778V9.38978V9.40178V9.41382V9.42589V9.43798V9.45011V9.46226V9.47444V9.48664V9.49888V9.51114V9.52343V9.53574V9.54808V9.56044V9.57283V9.58525V9.59769V9.61015V9.62264V9.63515V9.64768V9.66024V9.67282V9.68542V9.69805V9.71069V9.72336V9.73605V9.74876V9.76149V9.77424V9.78701V9.7998V9.81261V9.82544V9.83829V9.85115V9.86403V9.87694V9.88985V9.90279V9.91574V9.92871V9.94169V9.95469V9.96771V9.98074V9.99379V10.0068V10.0199V10.033V10.0461V10.0592V10.0724V10.0855V10.0987V10.1118V10.125V10.1382V10.1514V10.1646V10.1778V10.1911V10.2043V10.2175V10.2308V10.2441V10.2574V10.2706V10.2839V10.2972V10.3105V10.3239V10.3372V10.3505V10.3639V10.3772V10.3905V10.4039V10.4173V10.4306V10.444V10.4574V10.4707V10.4841V10.4975V10.5109V10.5242V10.5376V10.551V10.5644V10.5778V10.5912V10.6046V10.618V10.6314V10.6448V10.6582V10.6716V10.6849V10.6983V10.7117V10.7251V10.7385V10.7519V10.7652V10.7786V10.792V10.8053V10.8187V10.832V10.8454V10.8587V10.8721V10.8854V10.8987V10.912V10.9254V10.9387V10.9519V10.9652V10.9785V10.9918V11.005V11.0183V11.0315V11.0448V11.058V11.0712V11.0844V11.0976V11.1108V11.124V11.1371V11.1503V11.1634V11.1765V11.1896V11.2027V11.2158V11.2288V11.2419V11.2549V11.2679V11.2809V11.2939V11.3069V11.3199V11.3328V11.3457V11.3586V11.3715V11.3844V11.3972V11.41V11.4229V11.4357V11.4484V11.4612V11.4739V11.4866V11.4993V11.512V11.5246V11.5373V11.5499V11.5625V11.575V11.5876V11.6001V11.6126V11.625V11.6375V11.6499V11.6623V11.6746V11.687V11.6993V11.7116V11.7239V11.7361V11.7483V11.7605V11.7726V11.7848V11.7969V11.8089V11.821V11.833V11.845V11.8569V11.8689V11.8808V11.8926V11.9044V11.9162V11.928V11.9397V11.9514V11.9631V11.9748V11.9864V11.9979V12.0095V12.021V12.0324V12.0439V12.0553V12.0666V12.078V12.0892V12.1005V12.1117V12.1229V12.134V12.1451V12.1562V12.1672V12.1782V12.1892V12.2001V12.211V12.2218V12.2326V12.2433V12.254V12.2647V12.2753V12.2859V12.2965V12.307V12.3174V12.3279V12.3382V12.3486V12.3588V12.3691V12.3793V12.3894V12.3995V12.4096V12.4196V12.4296V12.4395V12.4494V12.4592V12.469V12.4787V12.4884V12.498V12.5076V12.5172V12.5267V12.5361V12.5455V12.5548V12.5641V12.5734V12.5826V12.5917V12.6008V12.6098V12.6188V12.6277V12.6366V12.6454V12.6542V12.6629V12.6716V12.6802V12.6887V12.6972V12.7056V12.714V12.7224V12.7306V12.7388V12.747V12.7551V12.7631V12.7711V12.7791V12.7869V12.7947V12.8025V12.8102V12.8178V12.8254V12.8329V12.8403V12.8477V12.855V12.8623V12.8695V12.8766V12.8837V12.8907V12.8977V12.9046V12.9114V12.9181V12.9248V12.9315V12.938V12.9445V12.951V12.9573V12.9636V12.9699V12.976V12.9821V12.9881V12.9941V13C18.5 13.1793 18.5593 13.3618 18.6184 13.5091C18.6825 13.669 18.7711 13.8462 18.874 14.0317C19.0802 14.4034 19.3643 14.8446 19.6833 15.3094C20.3226 16.2408 21.1267 17.3019 21.7928 18.1572C22.0605 18.5009 21.8089 19 21.3898 19H3.46377C3.05765 19 2.80439 18.5293 3.04454 18.1828C3.63765 17.3271 4.36063 16.2556 4.93688 15.3133C5.22446 14.843 5.48065 14.3965 5.66657 14.0209C5.75937 13.8333 5.83879 13.6552 5.89605 13.4954C5.9493 13.3467 6 13.1698 6 13V12.9941V12.9881V12.9821V12.976V12.9699V12.9636V12.9573V12.951V12.9445V12.938V12.9315V12.9248V12.9181V12.9114V12.9046V12.8977V12.8907V12.8837V12.8766V12.8695V12.8623V12.855V12.8477V12.8403V12.8329V12.8254V12.8178V12.8102V12.8025V12.7947V12.7869V12.7791V12.7711V12.7631V12.7551V12.747V12.7388V12.7306V12.7224V12.714V12.7056V12.6972V12.6887V12.6802V12.6716V12.6629V12.6542V12.6454V12.6366V12.6277V12.6188V12.6098V12.6008V12.5917V12.5826V12.5734V12.5641V12.5548V12.5455V12.5361V12.5267V12.5172V12.5076V12.498V12.4884V12.4787V12.469V12.4592V12.4494V12.4395V12.4296V12.4196V12.4096V12.3995V12.3894V12.3793V12.3691V12.3588V12.3486V12.3382V12.3279V12.3174V12.307V12.2965V12.2859V12.2753V12.2647V12.254V12.2433V12.2326V12.2218V12.211V12.2001V12.1892V12.1782V12.1672V12.1562V12.1451V12.134V12.1229V12.1117V12.1005V12.0892V12.078V12.0666V12.0553V12.0439V12.0324V12.021V12.0095V11.9979V11.9864V11.9748V11.9631V11.9514V11.9397V11.928V11.9162V11.9044V11.8926V11.8808V11.8689V11.8569V11.845V11.833V11.821V11.8089V11.7969V11.7848V11.7726V11.7605V11.7483V11.7361V11.7239V11.7116V11.6993V11.687V11.6746V11.6623V11.6499V11.6375V11.625V11.6126V11.6001V11.5876V11.575V11.5625V11.5499V11.5373V11.5246V11.512V11.4993V11.4866V11.4739V11.4612V11.4484V11.4357V11.4229V11.41V11.3972V11.3844V11.3715V11.3586V11.3457V11.3328V11.3199V11.3069V11.2939V11.2809V11.2679V11.2549V11.2419V11.2288V11.2158V11.2027V11.1896V11.1765V11.1634V11.1503V11.1371V11.124V11.1108V11.0976V11.0844V11.0712V11.058V11.0448V11.0315V11.0183V11.005V10.9918V10.9785V10.9652V10.9519V10.9387V10.9254V10.912V10.8987V10.8854V10.8721V10.8587V10.8454V10.832V10.8187V10.8053V10.792V10.7786V10.7652V10.7519V10.7385V10.7251V10.7117V10.6983V10.6849V10.6716V10.6582V10.6448V10.6314V10.618V10.6046V10.5912V10.5778V10.5644V10.551V10.5376V10.5242V10.5109V10.4975V10.4841V10.4707V10.4574V10.444V10.4306V10.4173V10.4039V10.3905V10.3772V10.3639V10.3505V10.3372V10.3239V10.3105V10.2972V10.2839V10.2706V10.2574V10.2441V10.2308V10.2175V10.2043V10.1911V10.1778V10.1646V10.1514V10.1382V10.125V10.1118V10.0987V10.0855V10.0724V10.0592V10.0461V10.033V10.0199V10.0068V9.99379V9.98074V9.96771V9.95469V9.94169V9.92871V9.91574V9.90279V9.88985V9.87694V9.86403V9.85115V9.83829V9.82544V9.81261V9.7998V9.78701V9.77424V9.76149V9.74876V9.73605V9.72336V9.71069V9.69805V9.68542V9.67282V9.66024V9.64768V9.63515V9.62264V9.61015V9.59769V9.58525V9.57283V9.56044V9.54808V9.53574V9.52343V9.51114V9.49888V9.48664V9.47444V9.46226V9.45011V9.43798V9.42589V9.41382V9.40178V9.38978V9.3778V9.36585V9.35393V9.34204V9.33018V9.31836V9.30657V9.2948V9.28307V9.27137V9.25971V9.24808V9.23648V9.22491V9.21338V9.20188V9.19042V9.17899V9.1676V9.15624V9.14492V9.13364V9.12239V9.11118V9.1V9.08887V9.07777V9.0667V9.05568V9.0447V9.03375V9.02285V9.01198V9.00115V8.99037V8.97962V8.96892V8.95825V8.94763V8.93705V8.92651V8.91602V8.90556V8.89515V8.88479V8.87446V8.86418V8.85395V8.84376V8.83361V8.82351V8.81346V8.80345V8.79349V8.78357V8.7737V8.76388V8.75411V8.74438V8.7347V8.72507V8.71549V8.70596V8.69647V8.68704V8.67765V8.66832V8.65904V8.64981V8.64062V8.6315V8.62242V8.61339V8.60442V8.5955V8.58663V8.57782V8.56906V8.56035V8.5517V8.5431V8.53456V8.52607V8.51764V8.50927V8.50095V8.49268V8.48448V8.47633V8.46824V8.4602V8.45223V8.44431V8.43645V8.42865V8.42091V8.41323V8.40561V8.39805V8.39055V8.38311V8.37573V8.36842V8.36116V8.35397V8.34684V8.33977V8.33277V8.32583V8.31895V8.31214V8.30539V8.29871V8.29209V8.28553V8.27904V8.27262V8.26627V8.25998V8.25375V8.2476V8.24151V8.23549V8.22954V8.22365V8.21784V8.21209V8.20642V8.20081V8.19527V8.1898V8.18441V8.17908V8.17383V8.16865V8.16353V8.1585V8.15353V8.14864V8.14382V8.13907V8.1344V8.1298V8.12527V8.12082V8.11645V8.11215V8.10792V8.10377V8.0997V8.09571V8.09179V8.08794V8.08418V8.08049V8.07689V8.07336V8.0699V8.06653V8.06324V8.06003V8.05689V8.05384V8.05087V8.04798V8.04517V8.04244V8.03979V8.03723V8.03474V8.03234V8.03003V8.0278V8.02565V8.02358V8.0216V8.0197V8.01789V8.01617V8.01453V8.01297V8.01151V8.01012V8.00883V8.00762V8.0065V8.00547V8.00453V8.00367V8.0029V8.00222V8.00164V8.00114V8.00073V8.00041V8.00018V8.00005L5.5 8Z" stroke="black"/>
<path d="M9 19.5C9 20.5 10 22.5 12 22.5C14.1046 22.5 15.0004 20.5 15.0004 19.5" stroke="black"/>
</svg>
