<svg width="20" height="21" viewBox="0 0 20 21" fill="none" xmlns="http://www.w3.org/2000/svg">
<path fill-rule="evenodd" clip-rule="evenodd" d="M11.6066 12.824C10.4917 13.7015 9.08856 14.224 7.56603 14.224C3.94541 14.224 1 11.2694 1 7.61199C1 3.95457 3.94541 1 7.56603 1C11.1866 1 14.1321 3.95457 14.1321 7.61199C14.1321 9.56133 13.2954 11.311 11.9657 12.5201C11.8689 12.5685 11.7784 12.6337 11.6985 12.7157C11.6649 12.7501 11.6343 12.7863 11.6066 12.824ZM11.625 14.037C10.4521 14.7886 9.05963 15.224 7.56603 15.224C3.38743 15.224 0 11.816 0 7.61199C0 3.408 3.38743 0 7.56603 0C11.7446 0 15.1321 3.408 15.1321 7.61199C15.1321 9.59036 14.3819 11.3924 13.1521 12.746L19.1575 18.6784C19.5504 19.0666 19.5562 19.7016 19.1704 20.0969C18.7847 20.4921 18.1535 20.4979 17.7606 20.1098L11.7114 14.1341C11.6802 14.1032 11.6514 14.0708 11.625 14.037Z" fill="#002450"/>
</svg>
