<svg width="32" height="32" viewBox="0 0 32 32" fill="none" xmlns="http://www.w3.org/2000/svg">
<path d="M13.0839 10.0011L13.2818 10.2791L13.6129 10.1961C14.3048 10.0225 15.395 10.0168 16.3609 10.0652C16.8338 10.089 17.2601 10.1246 17.5682 10.1543C17.7221 10.1692 17.8461 10.1825 17.9313 10.1921C17.9738 10.1969 18.0066 10.2007 18.0286 10.2033L18.0532 10.2063L18.0591 10.207L18.0604 10.2072L18.0606 10.2072L18.0606 10.2072L18.0606 10.2072L18.357 10.2444L18.53 10.0013L18.53 10.0013L18.5301 10.0012L18.5302 10.0011L18.5305 10.0006L18.5336 9.99637L18.5477 9.97693C18.5607 9.95927 18.5807 9.93247 18.6071 9.89783C18.66 9.82851 18.7386 9.72808 18.8392 9.60694C19.041 9.3639 19.3282 9.04134 19.6708 8.7205C20.3216 8.11095 21.0772 7.59848 21.7797 7.51264C22.7304 8.56602 23.3802 10.2882 23.0313 12.7391L23.0009 12.9526L23.1354 13.1212C23.8785 14.0534 24.3284 14.8736 24.5957 15.6783C24.8631 16.4833 24.9562 17.2977 24.9562 18.2318C24.9562 19.0415 24.5463 19.9932 23.7803 20.8522C23.0203 21.7046 21.9428 22.4259 20.6868 22.7861C18.0568 23.5401 15.0637 23.918 10.9215 22.7844C8.94834 22.2444 7.89035 21.0856 7.31724 20.0681C7.02828 19.5551 6.86151 19.0752 6.7674 18.7252C6.72045 18.5506 6.69192 18.4096 6.67537 18.3146C6.6671 18.2672 6.66185 18.2314 6.6588 18.2087L6.65577 18.1849L6.65546 18.1822L6.6556 18.1822L6.65421 18.171L6.6542 18.1709L6.65416 18.1706L6.65412 18.1703L6.65408 18.17L6.65381 18.1676L6.6518 18.148C6.64999 18.1294 6.64738 18.0999 6.64471 18.0604C6.63937 17.9813 6.63379 17.8625 6.63379 17.7113C6.63379 17.4085 6.65619 16.979 6.74639 16.4812C6.92699 15.4845 7.37537 14.2327 8.4419 13.1625L8.63025 12.9735L8.57809 12.7118C8.21589 10.8945 8.57967 9.55449 9.01771 8.67537C9.23828 8.23272 9.47989 7.90283 9.66334 7.68627C9.71845 7.62121 9.76816 7.56655 9.81029 7.5223C9.8274 7.5253 9.84562 7.52872 9.8649 7.53259C10.0397 7.56768 10.3028 7.64049 10.6257 7.7917C11.2681 8.09251 12.1668 8.71272 13.0839 10.0011ZM6.65531 18.1808C6.65529 18.1806 6.65529 18.1806 6.65531 18.1808L6.65531 18.1808Z" stroke="#151516"/>
<path d="M7.31579 17.8445L5 17.4572M7.70175 19.0064L5 19.781M23.9123 17.8445L27 17.4572M24.2982 19.0064L27 19.781M17.925 19.8871C17.5354 20.3389 16.6786 20.5458 15.8065 20.5444C14.8861 20.5429 13.9486 20.3095 13.525 19.8871" stroke="#151516" stroke-linecap="round"/>
<ellipse cx="12.4246" cy="16.0484" rx="0.825" ry="0.822581" fill="#151516"/>
<ellipse cx="19.0252" cy="16.0484" rx="0.825" ry="0.822581" fill="#151516"/>
<circle cx="16" cy="16" r="14.5" stroke="#151516"/>
</svg>
