<svg width="40" height="40" viewBox="0 0 40 40" fill="none" xmlns="http://www.w3.org/2000/svg">
<rect x="18.633" y="2.5" width="2.73333" height="4.46835" rx="0.5" stroke="#151516"/>
<path d="M12.0189 10.4756C13.5208 8.17075 16.8153 6.94289 20.2334 6.94287C23.6514 6.94285 26.9459 8.17068 28.4478 10.4754C30.0169 12.8831 30.3558 14.9539 30.5861 17.1469C30.6112 17.3857 30.635 17.6263 30.659 17.8693C30.8561 19.8642 31.0685 22.0134 32.1401 24.5252C33.2932 27.2278 33.4094 28.6624 33.2975 29.3804C33.2429 29.7304 33.1356 29.9015 33.0757 29.9745C33.0728 29.978 33.07 29.9813 33.0673 29.9845H7.27965C7.26259 29.966 7.24357 29.9438 7.22337 29.9173C7.12697 29.7909 6.99275 29.5538 6.92666 29.149C6.79287 28.3295 6.9348 26.7903 8.31175 24.1011C9.68982 21.4096 9.86671 19.2381 10.0309 17.223C10.0394 17.1177 10.048 17.0129 10.0566 16.9084C10.2297 14.8247 10.4548 12.8759 12.0189 10.4756Z" stroke="#151516"/>
<path d="M15.7998 33.8988C15.7998 35.2659 17.0131 38.0001 19.9998 38.0001C22.9865 38.0001 24.0442 35.2659 24.1998 33.8988" stroke="#151516"/>
<rect x="6.5" y="29.8418" width="27" height="4.46835" rx="0.5" stroke="#151516"/>
</svg>
